<svg width="421" height="489" viewBox="0 0 421 489" fill="none" xmlns="http://www.w3.org/2000/svg">
<g clip-path="url(#clip0)" filter="url(#filter0_d)">
<g style="mix-blend-mode:screen">
<g style="mix-blend-mode:screen">
<path d="M315.382 304.065L313.912 306.561L316.406 308.032L317.876 305.536L315.382 304.065Z" fill="#25054D"/>
</g>
<g style="mix-blend-mode:screen">
<path d="M344.726 324.5C344.463 324.492 344.206 324.422 343.974 324.297L338.473 321.052C338.255 320.92 338.076 320.732 337.954 320.508C337.832 320.284 337.772 320.032 337.778 319.777C337.78 319.526 337.84 319.278 337.952 319.053C338.151 318.722 338.471 318.482 338.845 318.385C339.218 318.287 339.614 318.34 339.95 318.531L345.45 321.806C345.669 321.932 345.851 322.113 345.978 322.332C346.105 322.551 346.172 322.799 346.174 323.051C346.161 323.305 346.092 323.552 345.971 323.776C345.843 323.993 345.661 324.173 345.443 324.3C345.225 324.427 344.978 324.496 344.726 324.5ZM330.946 316.358C330.688 316.32 330.447 316.21 330.251 316.039L324.75 312.794C324.531 312.668 324.35 312.486 324.223 312.268C324.096 312.049 324.028 311.801 324.026 311.548C324.025 311.292 324.095 311.041 324.229 310.824C324.423 310.495 324.738 310.256 325.106 310.158C325.475 310.06 325.867 310.112 326.198 310.302L331.727 313.547C331.937 313.681 332.11 313.865 332.232 314.083C332.353 314.3 332.418 314.544 332.422 314.793C332.426 314.985 332.391 315.175 332.32 315.352C332.249 315.53 332.142 315.691 332.007 315.827C331.872 315.962 331.711 316.069 331.533 316.14C331.356 316.211 331.166 316.246 330.975 316.242L330.946 316.358Z" fill="#25054D"/>
</g>
<g style="mix-blend-mode:screen">
<path d="M353.639 326.659L352.169 329.155L354.663 330.627L356.133 328.131L353.639 326.659Z" fill="#25054D"/>
</g>
<g style="mix-blend-mode:screen">
<path d="M265.781 333.23L264.31 335.726L266.804 337.198L268.275 334.702L265.781 333.23Z" fill="#25054D"/>
</g>
<g style="mix-blend-mode:screen">
<path d="M295.076 353.708C294.82 353.713 294.568 353.642 294.352 353.505L288.851 350.259C288.632 350.133 288.45 349.952 288.323 349.733C288.196 349.514 288.129 349.266 288.127 349.013C288.122 348.748 288.192 348.487 288.33 348.26C288.425 348.097 288.552 347.954 288.704 347.841C288.855 347.727 289.027 347.645 289.211 347.599C289.394 347.553 289.585 347.544 289.772 347.573C289.958 347.602 290.138 347.668 290.299 347.768L295.828 351.013C296.04 351.145 296.214 351.328 296.336 351.546C296.457 351.764 296.522 352.009 296.523 352.259C296.525 352.514 296.455 352.766 296.32 352.983C296.194 353.202 296.013 353.384 295.794 353.511C295.576 353.638 295.328 353.706 295.076 353.708ZM281.324 345.594C281.061 345.586 280.803 345.516 280.571 345.392L275.07 342.117C274.857 341.987 274.681 341.804 274.559 341.586C274.437 341.368 274.374 341.121 274.376 340.871C274.374 340.61 274.434 340.352 274.549 340.118C274.748 339.787 275.069 339.547 275.442 339.45C275.815 339.352 276.212 339.405 276.547 339.596L282.048 342.871C282.266 342.997 282.448 343.179 282.575 343.397C282.702 343.616 282.77 343.864 282.771 344.117C282.773 344.372 282.703 344.623 282.569 344.841C282.439 345.055 282.256 345.231 282.038 345.353C281.82 345.475 281.574 345.538 281.324 345.536V345.594Z" fill="#25054D"/>
</g>
<g style="mix-blend-mode:screen">
<path d="M304.081 355.829L302.611 358.325L305.105 359.796L306.575 357.3L304.081 355.829Z" fill="#25054D"/>
</g>
<g style="mix-blend-mode:screen">
<path d="M216.222 362.371L214.752 364.867L217.246 366.339L218.716 363.842L216.222 362.371Z" fill="#25054D"/>
</g>
<g style="mix-blend-mode:screen">
<path d="M245.511 382.683C245.246 382.689 244.985 382.619 244.759 382.481L239.258 379.235C239.043 379.108 238.865 378.925 238.743 378.706C238.621 378.487 238.559 378.24 238.563 377.989C238.562 377.738 238.622 377.489 238.737 377.265C238.936 376.934 239.256 376.694 239.63 376.597C240.003 376.499 240.4 376.552 240.735 376.743L246.235 379.989C246.454 380.115 246.636 380.297 246.763 380.515C246.89 380.734 246.957 380.982 246.959 381.235C246.95 381.489 246.881 381.737 246.756 381.959C246.628 382.176 246.446 382.357 246.228 382.483C246.01 382.61 245.763 382.679 245.511 382.683ZM231.818 374.686C231.562 374.688 231.311 374.618 231.094 374.483L225.593 371.238C225.374 371.112 225.192 370.93 225.066 370.712C224.939 370.493 224.871 370.245 224.869 369.992C224.864 369.727 224.934 369.465 225.072 369.239C225.27 368.915 225.588 368.682 225.956 368.589C226.324 368.497 226.714 368.554 227.041 368.746L232.57 371.991C232.782 372.124 232.956 372.307 233.078 372.525C233.199 372.743 233.264 372.988 233.265 373.237C233.27 373.494 233.2 373.746 233.063 373.962C232.936 374.181 232.755 374.363 232.536 374.49C232.318 374.617 232.07 374.685 231.818 374.686Z" fill="#25054D"/>
</g>
<g style="mix-blend-mode:screen">
<path d="M254.5 384.959L253.03 387.455L255.524 388.926L256.994 386.43L254.5 384.959Z" fill="#25054D"/>
</g>
<g style="mix-blend-mode:screen">
<path d="M166.645 391.551L165.175 394.047L167.669 395.519L169.139 393.023L166.645 391.551Z" fill="#25054D"/>
</g>
<g style="mix-blend-mode:screen">
<path d="M195.918 411.949C195.662 411.954 195.411 411.883 195.195 411.746L189.694 408.501C189.475 408.374 189.293 408.193 189.166 407.974C189.039 407.756 188.972 407.508 188.97 407.255C188.968 406.999 189.039 406.748 189.173 406.531C189.366 406.202 189.681 405.962 190.05 405.865C190.419 405.767 190.811 405.819 191.142 406.009L196.671 409.254C196.881 409.388 197.054 409.572 197.175 409.79C197.297 410.007 197.362 410.251 197.366 410.5C197.37 410.692 197.335 410.882 197.264 411.059C197.192 411.237 197.086 411.398 196.951 411.533C196.816 411.669 196.654 411.775 196.477 411.847C196.3 411.918 196.11 411.953 195.918 411.949ZM182.167 403.836C181.902 403.841 181.64 403.771 181.414 403.633L175.913 400.388C175.698 400.26 175.52 400.077 175.398 399.858C175.276 399.64 175.214 399.392 175.218 399.142C175.217 398.89 175.277 398.641 175.392 398.417C175.591 398.086 175.911 397.847 176.285 397.749C176.658 397.652 177.055 397.704 177.39 397.896L182.89 401.141C183.109 401.267 183.291 401.449 183.418 401.668C183.545 401.886 183.613 402.134 183.614 402.387C183.62 402.652 183.55 402.914 183.412 403.14C183.278 403.35 183.094 403.524 182.877 403.645C182.659 403.766 182.415 403.832 182.167 403.836Z" fill="#25054D"/>
</g>
<g style="mix-blend-mode:screen">
<path d="M204.923 414.128L203.453 416.625L205.947 418.096L207.417 415.599L204.923 414.128Z" fill="#25054D"/>
</g>
<g style="mix-blend-mode:screen">
<path d="M117.087 420.692L115.617 423.188L118.111 424.659L119.581 422.163L117.087 420.692Z" fill="#25054D"/>
</g>
<g style="mix-blend-mode:screen">
<path d="M146.354 441.127C146.091 441.119 145.834 441.049 145.602 440.925L140.101 437.737C139.883 437.605 139.704 437.417 139.582 437.193C139.46 436.969 139.4 436.717 139.406 436.462C139.408 436.211 139.468 435.963 139.58 435.738C139.779 435.407 140.099 435.167 140.472 435.07C140.846 434.972 141.242 435.025 141.577 435.216L147.078 438.491C147.297 438.617 147.479 438.799 147.606 439.017C147.733 439.236 147.8 439.484 147.802 439.737C147.789 439.99 147.72 440.238 147.599 440.461C147.464 440.667 147.279 440.836 147.062 440.953C146.844 441.069 146.601 441.129 146.354 441.127ZM132.574 432.985C132.318 432.987 132.067 432.917 131.85 432.782L126.349 429.537C126.13 429.411 125.949 429.229 125.822 429.011C125.695 428.792 125.627 428.544 125.625 428.291C125.624 428.035 125.694 427.784 125.828 427.567C126.021 427.238 126.337 426.999 126.705 426.901C127.074 426.803 127.466 426.855 127.797 427.045L133.384 430.29C133.594 430.424 133.767 430.608 133.888 430.826C134.01 431.043 134.075 431.287 134.079 431.536C134.083 431.728 134.048 431.918 133.977 432.095C133.906 432.273 133.799 432.434 133.664 432.57C133.529 432.705 133.368 432.812 133.19 432.883C133.013 432.954 132.823 432.989 132.632 432.985H132.574Z" fill="#25054D"/>
</g>
<g style="mix-blend-mode:screen">
<path d="M155.331 443.323L153.861 445.819L156.355 447.29L157.825 444.794L155.331 443.323Z" fill="#25054D"/>
</g>
</g>
<g style="mix-blend-mode:screen">
<g style="mix-blend-mode:screen">
<path d="M373.301 337.829C374.575 338.553 375.241 339.336 375.328 340.147C375.414 340.958 374.835 341.712 373.706 342.378C372.368 343.138 370.844 343.509 369.306 343.45C367.639 343.378 366.017 342.89 364.587 342.031C363.507 341.523 362.594 340.719 361.952 339.712L363.776 338.669C364.026 339.149 364.36 339.581 364.761 339.944C365.213 340.361 365.708 340.73 366.237 341.045C367.052 341.543 367.977 341.832 368.929 341.886C369.801 341.929 370.666 341.718 371.419 341.277C372.925 340.408 372.693 339.423 370.782 338.38C370.438 338.172 370.08 337.988 369.711 337.829L368.466 337.337L368.09 336.496L374.691 333.251L381.263 337.047L379.468 338.061L374.691 335.163L371.303 336.815L372.172 337.163C372.562 337.361 372.939 337.584 373.301 337.829Z" fill="#7100FF"/>
</g>
<g style="mix-blend-mode:screen">
<path d="M386.532 347.275C384.759 348.37 382.794 349.118 380.741 349.477C379.078 349.699 377.388 349.363 375.936 348.521C374.517 347.71 373.996 346.783 374.372 345.624C375.207 344.12 376.507 342.93 378.078 342.233C379.898 341.106 381.926 340.357 384.042 340.031C385.692 339.815 387.368 340.141 388.819 340.958C390.237 341.799 390.759 342.726 390.382 343.856C389.507 345.387 388.155 346.588 386.532 347.275ZM380.018 343.508C378.811 344.082 377.744 344.913 376.891 345.942C376.515 346.551 376.717 347.101 377.499 347.536C377.934 347.784 378.414 347.942 378.911 348.002C379.409 348.062 379.913 348.021 380.394 347.884C381.869 347.505 383.275 346.899 384.563 346.087C385.762 345.513 386.827 344.694 387.69 343.682C388.066 343.016 387.892 342.494 387.111 342.031C386.221 341.562 385.19 341.438 384.216 341.683C382.733 342.078 381.318 342.694 380.018 343.508Z" fill="#7100FF"/>
</g>
<g style="mix-blend-mode:screen">
<path d="M405.929 351.245L386.416 354.432L384.737 353.476L404.25 350.26L405.929 351.245ZM396.549 350.144C395.428 350.831 394.175 351.275 392.872 351.448C391.795 351.557 390.711 351.323 389.774 350.781C388.906 350.289 388.587 349.709 388.79 349.014C388.993 348.318 389.716 347.652 390.99 346.927C391.93 346.212 393.05 345.771 394.225 345.653C395.401 345.536 396.586 345.746 397.649 346.261C398.546 346.783 398.894 347.362 398.72 348.029C398.546 348.695 397.794 349.419 396.549 350.144ZM392.64 347.913C392.02 348.226 391.461 348.648 390.99 349.159C390.932 349.219 390.89 349.293 390.868 349.374C390.847 349.454 390.846 349.539 390.866 349.621C390.887 349.702 390.927 349.776 390.984 349.838C391.041 349.899 391.113 349.944 391.193 349.97C391.946 350.434 393.161 350.144 394.87 349.188C396.578 348.231 397.012 347.507 396.23 347.072C396.006 346.976 395.765 346.926 395.521 346.926C395.277 346.926 395.036 346.976 394.812 347.072C394.055 347.259 393.326 347.542 392.64 347.913ZM399.733 357.793C398.615 358.481 397.36 358.916 396.057 359.068C394.991 359.201 393.912 358.976 392.988 358.431C392.119 357.938 391.772 357.359 391.974 356.692C392.177 356.026 392.901 355.301 394.175 354.577C395.115 353.862 396.235 353.421 397.41 353.303C398.585 353.185 399.77 353.396 400.833 353.911C401.731 354.403 402.078 355.012 401.905 355.678C401.731 356.345 401.007 357.04 399.733 357.793ZM395.854 355.533C395.236 355.85 394.678 356.272 394.204 356.779C394.139 356.84 394.091 356.916 394.064 357.001C394.037 357.085 394.031 357.175 394.049 357.262C394.066 357.349 394.106 357.43 394.163 357.498C394.221 357.566 394.294 357.617 394.377 357.649C395.13 358.054 396.375 357.649 398.054 356.808C399.733 355.968 400.197 355.157 399.444 354.722C398.978 354.541 398.462 354.541 397.996 354.722C397.249 354.897 396.529 355.169 395.854 355.533Z" fill="#7100FF"/>
</g>
<g style="mix-blend-mode:screen">
<path d="M326.777 369.615C324.645 370.933 322.237 371.737 319.742 371.962C317.52 372.081 315.313 371.536 313.401 370.398C312.848 370.116 312.333 369.765 311.867 369.355L313.575 368.398C313.977 368.788 314.424 369.129 314.907 369.412C316.156 370.164 317.589 370.555 319.047 370.543C320.648 370.454 322.206 369.987 323.592 369.181C322.816 369.314 322.023 369.314 321.247 369.181C320.534 369.032 319.849 368.768 319.221 368.398C318.092 367.761 317.57 367.036 317.628 366.283C317.686 365.53 318.294 364.776 319.51 364.081C320.797 363.339 322.252 362.94 323.737 362.922C325.208 362.891 326.659 363.262 327.935 363.994C328.681 364.358 329.276 364.974 329.614 365.733C329.726 366.064 329.752 366.418 329.692 366.762C329.631 367.106 329.485 367.43 329.267 367.703C328.585 368.514 327.736 369.166 326.777 369.615ZM326.198 364.863C325.507 364.457 324.709 364.275 323.911 364.342C323.028 364.387 322.171 364.656 321.421 365.124C320.726 365.53 320.321 365.935 320.263 366.399C320.205 366.863 320.523 367.239 321.247 367.645C321.954 368.051 322.749 368.28 323.563 368.311C324.304 368.372 325.047 368.221 325.706 367.877C326.149 367.634 326.534 367.298 326.835 366.892C326.948 366.735 327.025 366.554 327.06 366.364C327.095 366.173 327.087 365.978 327.037 365.791C326.967 365.587 326.857 365.4 326.712 365.241C326.568 365.082 326.393 364.953 326.198 364.863Z" fill="#7100FF"/>
</g>
<g style="mix-blend-mode:screen">
<path d="M336.389 376.251C334.616 377.346 332.651 378.093 330.598 378.453C328.935 378.675 327.245 378.339 325.792 377.497C324.374 376.686 323.853 375.758 324.229 374.599C325.063 373.096 326.364 371.906 327.935 371.209C329.704 370.106 331.67 369.358 333.725 369.007C335.385 368.789 337.071 369.114 338.531 369.934C339.95 370.775 340.471 371.702 340.094 372.832C339.257 374.339 337.958 375.538 336.389 376.251ZM329.875 372.484C328.668 373.058 327.601 373.889 326.748 374.918C326.372 375.527 326.574 376.077 327.356 376.512C327.791 376.759 328.271 376.918 328.768 376.978C329.266 377.037 329.77 376.997 330.251 376.859C331.725 376.481 333.132 375.875 334.42 375.063C335.619 374.489 336.684 373.67 337.547 372.658C337.923 371.992 337.749 371.47 336.968 371.006C336.078 370.538 335.047 370.414 334.073 370.659C332.59 371.054 331.175 371.669 329.875 372.484Z" fill="#7100FF"/>
</g>
<g style="mix-blend-mode:screen">
<path d="M355.786 380.221L336.273 383.408L334.594 382.452L354.107 379.235L355.786 380.221ZM346.406 379.119C345.283 379.803 344.031 380.246 342.729 380.423C341.652 380.532 340.568 380.299 339.631 379.757C338.763 379.264 338.444 378.685 338.647 377.989C338.849 377.294 339.573 376.628 340.847 375.903C341.787 375.188 342.907 374.747 344.082 374.629C345.258 374.512 346.443 374.722 347.506 375.237C348.403 375.758 348.751 376.338 348.577 377.004C348.403 377.671 347.622 378.395 346.406 379.119ZM342.497 376.888C341.877 377.201 341.318 377.623 340.847 378.134C340.789 378.194 340.747 378.268 340.725 378.349C340.704 378.43 340.703 378.515 340.723 378.596C340.744 378.677 340.784 378.752 340.841 378.813C340.898 378.874 340.97 378.92 341.05 378.946C341.802 379.409 343.018 379.119 344.697 378.163C346.377 377.207 346.869 376.483 346.087 376.048C345.863 375.952 345.622 375.902 345.378 375.902C345.134 375.902 344.893 375.952 344.669 376.048C343.912 376.235 343.183 376.517 342.497 376.888ZM349.59 386.769C348.472 387.456 347.217 387.891 345.913 388.044C344.848 388.181 343.768 387.956 342.845 387.407C341.976 386.914 341.629 386.334 341.831 385.668C342.034 385.002 342.758 384.277 344.032 383.553C344.972 382.837 346.092 382.396 347.267 382.279C348.442 382.161 349.627 382.371 350.69 382.886C351.588 383.379 351.935 383.987 351.762 384.654C351.588 385.32 350.864 386.016 349.59 386.769ZM345.711 384.509C345.088 384.818 344.528 385.24 344.061 385.755C343.996 385.816 343.948 385.892 343.921 385.976C343.893 386.061 343.888 386.151 343.906 386.238C343.923 386.325 343.962 386.406 344.02 386.474C344.077 386.541 344.151 386.593 344.234 386.624C344.987 387.03 346.232 386.624 347.911 385.784C349.59 384.944 350.053 384.132 349.301 383.698C348.835 383.517 348.319 383.517 347.853 383.698C347.106 383.872 346.386 384.145 345.711 384.509Z" fill="#7100FF"/>
</g>
<g style="mix-blend-mode:screen">
<path d="M277.85 392.941C279.066 393.636 279.732 394.361 279.876 395.056C280.021 395.751 279.645 396.418 278.718 396.939C277.028 397.711 275.119 397.854 273.333 397.345C273.786 397.951 273.983 398.71 273.883 399.46C273.802 399.77 273.654 400.058 273.449 400.303C273.243 400.548 272.987 400.746 272.696 400.88C271.599 401.506 270.335 401.779 269.078 401.662C267.648 401.57 266.26 401.143 265.024 400.417C263.664 399.605 262.882 398.823 262.708 398.069C262.535 397.316 262.998 396.592 264.069 395.983C264.825 395.557 265.665 395.3 266.53 395.23C267.685 395.156 268.844 395.244 269.975 395.491C269.677 394.941 269.604 394.297 269.772 393.694C270.022 393.144 270.45 392.694 270.988 392.419C271.98 391.884 273.11 391.662 274.231 391.782C275.508 391.896 276.744 392.292 277.85 392.941ZM266.067 397.171C265.488 397.519 265.227 397.896 265.314 398.33C265.541 398.896 265.976 399.352 266.53 399.605C267.214 400.019 267.99 400.258 268.788 400.301C269.483 400.371 270.183 400.219 270.786 399.866C270.992 399.772 271.166 399.621 271.289 399.431C271.412 399.241 271.479 399.02 271.48 398.794C271.415 398.21 271.184 397.657 270.815 397.2V396.997C269.926 396.768 269.011 396.66 268.093 396.679C267.387 396.67 266.69 396.839 266.067 397.171ZM276.286 393.955C275.743 393.625 275.126 393.436 274.491 393.404C273.909 393.348 273.324 393.469 272.812 393.752C272.551 393.873 272.337 394.077 272.204 394.332C272.117 394.555 272.117 394.803 272.204 395.027C272.318 395.42 272.494 395.791 272.725 396.128C273.52 396.332 274.337 396.43 275.157 396.418C275.715 396.402 276.261 396.253 276.75 395.983C277.213 395.693 277.444 395.375 277.358 394.998C277.271 394.621 276.865 394.274 276.286 393.839V393.955Z" fill="#7100FF"/>
</g>
<g style="mix-blend-mode:screen">
<path d="M286.245 405.226C284.473 406.322 282.507 407.069 280.455 407.429C278.792 407.651 277.102 407.314 275.649 406.472C274.231 405.661 273.71 404.734 274.086 403.575C274.92 402.072 276.221 400.882 277.792 400.185C279.561 399.081 281.527 398.333 283.582 397.982C285.242 397.765 286.928 398.09 288.388 398.91C289.806 399.75 290.328 400.677 289.951 401.807C289.114 403.315 287.815 404.513 286.245 405.226ZM279.731 401.46C278.525 402.033 277.458 402.864 276.605 403.894C276.228 404.502 276.431 405.053 277.213 405.487C277.648 405.735 278.128 405.893 278.625 405.953C279.122 406.013 279.626 405.973 280.108 405.835C281.582 405.457 282.989 404.85 284.277 404.038C285.474 403.475 286.532 402.654 287.375 401.633C287.78 400.967 287.577 400.445 286.824 399.982C285.935 399.513 284.904 399.389 283.929 399.634C282.447 400.03 281.032 400.645 279.731 401.46Z" fill="#7100FF"/>
</g>
<g style="mix-blend-mode:screen">
<path d="M305.643 409.196L286.13 412.384L284.451 411.427L303.964 408.211L305.643 409.196ZM296.263 408.095C295.14 408.778 293.888 409.222 292.586 409.399C291.509 409.508 290.425 409.275 289.488 408.733C288.619 408.24 288.272 407.661 288.475 406.965C288.959 406.036 289.745 405.3 290.704 404.879C291.644 404.163 292.764 403.723 293.939 403.605C295.115 403.487 296.299 403.698 297.363 404.212C298.26 404.734 298.608 405.313 298.434 405.98C298.26 406.646 297.507 407.371 296.263 408.095ZM292.354 405.864C291.734 406.177 291.175 406.599 290.704 407.11C290.443 407.429 290.53 407.719 290.907 407.921C291.283 408.124 292.875 408.095 294.554 407.139C296.234 406.183 296.726 405.458 295.944 405.024C295.72 404.927 295.479 404.878 295.235 404.878C294.991 404.878 294.75 404.927 294.525 405.024C293.767 405.205 293.037 405.488 292.354 405.864ZM299.447 415.745C298.329 416.432 297.074 416.867 295.77 417.02C294.705 417.156 293.625 416.932 292.702 416.382C291.833 415.89 291.486 415.31 291.688 414.644C291.891 413.977 292.615 413.253 293.889 412.528C294.829 411.813 295.949 411.372 297.124 411.255C298.299 411.137 299.484 411.347 300.547 411.862C301.445 412.355 301.792 412.963 301.618 413.63C301.445 414.296 300.692 414.991 299.447 415.745ZM295.568 413.485C294.945 413.794 294.385 414.216 293.918 414.731C293.853 414.791 293.805 414.868 293.777 414.952C293.75 415.037 293.745 415.127 293.763 415.214C293.78 415.301 293.819 415.382 293.877 415.449C293.934 415.517 294.008 415.569 294.091 415.6C294.844 416.006 296.089 415.6 297.768 414.76C299.447 413.919 299.91 413.108 299.158 412.673C298.692 412.492 298.176 412.492 297.71 412.673C296.943 412.843 296.203 413.116 295.51 413.485H295.568Z" fill="#7100FF"/>
</g>
<g style="mix-blend-mode:screen">
<path d="M216.126 423.742C218.065 422.372 220.348 421.573 222.717 421.435C225.086 421.296 227.446 421.825 229.531 422.96C230.035 423.265 230.519 423.604 230.978 423.974L229.299 424.959C228.911 424.56 228.462 424.228 227.967 423.974C226.728 423.223 225.305 422.832 223.856 422.844C222.242 422.908 220.669 423.376 219.282 424.206C220.019 424.075 220.774 424.075 221.511 424.206C222.257 424.336 222.973 424.601 223.625 424.988C224.754 425.625 225.304 426.35 225.246 427.132C225.188 427.914 224.551 428.639 223.364 429.305C222.092 430.054 220.642 430.449 219.166 430.449C217.69 430.449 216.241 430.054 214.968 429.305C214.215 428.941 213.612 428.326 213.26 427.567C213.148 427.236 213.122 426.881 213.182 426.537C213.243 426.193 213.389 425.869 213.607 425.596C214.299 424.799 215.16 424.166 216.126 423.742ZM216.676 428.494C217.371 428.892 218.164 429.083 218.963 429.045C219.846 428.996 220.701 428.727 221.453 428.262C222.148 427.857 222.553 427.422 222.611 426.987C222.669 426.553 222.351 426.118 221.627 425.712C221.169 425.447 220.67 425.261 220.15 425.162C219.613 425.076 219.066 425.076 218.529 425.162C218.064 425.192 217.61 425.32 217.197 425.538C216.871 425.685 216.579 425.9 216.344 426.17C216.109 426.441 215.936 426.759 215.837 427.103C215.804 427.395 215.868 427.69 216.02 427.941C216.172 428.193 216.403 428.387 216.676 428.494Z" fill="#7100FF"/>
</g>
<g style="mix-blend-mode:screen">
<path d="M236.102 434.202C234.327 435.293 232.363 436.04 230.312 436.404C228.649 436.627 226.958 436.29 225.506 435.448C224.088 434.637 223.567 433.71 223.943 432.551C224.777 431.048 226.078 429.857 227.649 429.16C229.417 428.057 231.384 427.309 233.439 426.958C235.099 426.74 236.785 427.066 238.245 427.886C239.663 428.726 240.184 429.653 239.808 430.783C238.97 432.291 237.672 433.489 236.102 434.202ZM229.588 430.435C228.382 431.009 227.314 431.84 226.462 432.869C226.085 433.478 226.288 434.028 227.07 434.463C227.505 434.711 227.985 434.869 228.482 434.929C228.979 434.989 229.483 434.948 229.965 434.811C231.439 434.432 232.846 433.826 234.134 433.014C235.331 432.451 236.389 431.63 237.231 430.609C237.637 429.943 237.434 429.421 236.681 428.958C235.792 428.489 234.761 428.365 233.786 428.61C232.304 429.005 230.889 429.621 229.588 430.435Z" fill="#7100FF"/>
</g>
<g style="mix-blend-mode:screen">
<path d="M255.5 438.172L235.987 441.359L234.307 440.403L253.82 437.186L255.5 438.172ZM246.119 437.071C244.996 437.754 243.745 438.198 242.443 438.374C241.369 438.492 240.285 438.269 239.345 437.737C238.476 437.244 238.129 436.665 238.332 435.969C238.816 435.041 239.602 434.305 240.561 433.883C241.501 433.168 242.621 432.727 243.796 432.609C244.971 432.492 246.156 432.702 247.22 433.217C248.117 433.738 248.464 434.318 248.291 434.984C248.117 435.651 247.364 436.346 246.119 437.071ZM242.211 434.839C241.591 435.152 241.032 435.574 240.561 436.085C240.3 436.404 240.387 436.694 240.763 436.897C241.14 437.1 242.732 437.071 244.411 436.114C246.09 435.158 246.583 434.434 245.801 433.999C245.572 433.902 245.326 433.852 245.077 433.852C244.829 433.852 244.582 433.902 244.353 433.999C243.607 434.187 242.887 434.47 242.211 434.839ZM249.188 444.72C248.07 445.407 246.815 445.842 245.511 445.995C244.446 446.132 243.366 445.907 242.443 445.358C241.574 444.865 241.227 444.285 241.429 443.619C241.632 442.953 242.356 442.228 243.63 441.504C244.57 440.788 245.69 440.348 246.865 440.23C248.04 440.112 249.225 440.323 250.288 440.837C251.186 441.33 251.533 441.938 251.36 442.605C251.186 443.271 250.549 443.967 249.188 444.72ZM245.309 442.46C244.686 442.769 244.126 443.192 243.659 443.706C243.594 443.767 243.546 443.843 243.519 443.927C243.491 444.012 243.486 444.102 243.504 444.189C243.521 444.276 243.56 444.357 243.618 444.425C243.675 444.492 243.749 444.544 243.832 444.575C244.585 444.981 245.801 444.575 247.509 443.735C249.217 442.895 249.651 442.083 248.899 441.649C248.433 441.468 247.917 441.468 247.451 441.649C246.744 441.833 246.063 442.105 245.425 442.46H245.309Z" fill="#7100FF"/>
</g>
<g style="mix-blend-mode:screen">
<path d="M169.168 460.715L160.482 455.76L161.988 454.891H168.502C170.432 454.891 171.764 454.891 172.497 454.891C173.113 454.855 173.724 454.758 174.321 454.601C174.806 454.493 175.274 454.318 175.711 454.079C176.261 453.732 176.521 453.384 176.521 453.007C176.521 452.631 176.203 452.254 175.595 451.906C175.067 451.61 174.503 451.386 173.916 451.24C173.085 451.065 172.244 450.949 171.397 450.892L171.629 449.501C172.743 449.528 173.85 449.684 174.929 449.965C175.799 450.179 176.637 450.511 177.419 450.95C178.577 451.645 179.214 452.37 179.329 453.123C179.329 453.877 178.953 454.543 177.911 455.151C177.314 455.494 176.67 455.747 176 455.905C175.171 456.094 174.329 456.22 173.481 456.281C172.526 456.281 171.107 456.281 169.197 456.281H164.941L170.934 459.759L169.168 460.715Z" fill="#7100FF"/>
</g>
<g style="mix-blend-mode:screen">
<path d="M185.959 463.178C184.184 464.269 182.22 465.016 180.169 465.38C178.496 465.602 176.797 465.266 175.334 464.424C173.945 463.612 173.424 462.685 173.8 461.526C174.626 460.016 175.929 458.824 177.506 458.136C179.272 457.028 181.24 456.28 183.296 455.934C184.956 455.716 186.642 456.041 188.102 456.861C189.491 457.701 190.012 458.629 189.665 459.759C188.827 461.266 187.528 462.465 185.959 463.178ZM179.445 459.411C178.238 459.985 177.171 460.816 176.319 461.845C175.942 462.453 176.145 463.004 176.927 463.439C177.362 463.686 177.842 463.845 178.339 463.904C178.836 463.964 179.34 463.924 179.822 463.786C181.296 463.408 182.703 462.802 183.991 461.99C185.188 461.426 186.245 460.605 187.088 459.585C187.494 458.918 187.291 458.397 186.538 457.933C185.649 457.465 184.618 457.341 183.643 457.586C182.161 457.981 180.746 458.596 179.445 459.411Z" fill="#7100FF"/>
</g>
<g style="mix-blend-mode:screen">
<path d="M205.356 467.148L185.843 470.335L184.164 469.379L203.677 466.162L205.356 467.148ZM195.976 466.046C194.853 466.73 193.602 467.173 192.3 467.35C191.223 467.459 190.139 467.226 189.202 466.684C188.333 466.191 187.986 465.612 188.188 464.916C188.391 464.221 189.144 463.555 190.418 462.83C191.358 462.115 192.478 461.674 193.653 461.556C194.828 461.439 196.013 461.649 197.076 462.164C197.974 462.685 198.321 463.265 198.148 463.931C197.974 464.598 197.221 465.322 195.976 466.046ZM192.068 463.815C191.448 464.128 190.889 464.55 190.418 465.061C190.157 465.38 190.244 465.67 190.62 465.873C190.997 466.075 192.589 466.046 194.268 465.09C195.947 464.134 196.44 463.41 195.658 462.975C195.429 462.878 195.183 462.828 194.934 462.828C194.685 462.828 194.439 462.878 194.21 462.975C193.464 463.163 192.744 463.446 192.068 463.815ZM199.161 473.696C198.042 474.383 196.788 474.818 195.484 474.971C194.419 475.108 193.338 474.883 192.415 474.334C191.547 473.841 191.199 473.261 191.402 472.595C191.605 471.929 192.328 471.204 193.602 470.48C194.543 469.764 195.662 469.323 196.838 469.206C198.013 469.088 199.198 469.298 200.261 469.813C201.159 470.306 201.506 470.914 201.332 471.581C201.159 472.247 200.406 472.943 199.161 473.696ZM195.281 471.436C194.659 471.745 194.099 472.167 193.631 472.682C193.567 472.743 193.518 472.819 193.491 472.903C193.464 472.988 193.459 473.078 193.476 473.165C193.494 473.252 193.533 473.333 193.591 473.401C193.648 473.468 193.722 473.52 193.805 473.551C194.558 473.957 195.774 473.551 197.482 472.711C199.19 471.871 199.624 471.059 198.871 470.625C198.406 470.444 197.889 470.444 197.424 470.625C196.677 470.799 195.957 471.072 195.281 471.436Z" fill="#7100FF"/>
</g>
</g>
<path style="mix-blend-mode:color-dodge" d="M36.2538 426.698V202.107C36.2538 194.313 40.9728 185.272 46.8209 181.824L345.508 9.33229C346.837 8.50767 348.375 8.08505 349.938 8.11531C348.834 7.41409 347.546 7.06122 346.24 7.10256C344.933 7.1439 343.67 7.57754 342.613 8.34711L43.9258 180.955C38.1356 184.316 33.3587 193.357 33.3587 201.238V425.828C33.3587 431.624 35.8774 434.869 39.4673 435.043C38.3063 434.008 37.4089 432.712 36.8499 431.26C36.2909 429.808 36.0865 428.244 36.2538 426.698Z" fill="url(#paint0_radial)"/>
<g style="mix-blend-mode:screen">
<g style="mix-blend-mode:screen">
<path d="M40.7412 436.781C36.0801 436.781 32.9244 432.493 32.9244 426.089V201.499C32.9244 193.125 37.875 183.708 44.2153 180.057L342.931 7.44878C344.418 6.54523 346.115 6.04583 347.853 6C352.514 6 355.67 10.2884 355.67 16.692V241.282C355.67 249.656 350.69 259.073 344.379 262.724L45.6918 435.332C44.1968 436.241 42.4897 436.74 40.7412 436.781ZM347.853 8.89757C346.621 8.94001 345.421 9.31004 344.379 9.96967L45.6918 182.578C40.278 185.707 35.8485 194.168 35.8485 201.499V426.147C35.8485 430.87 37.7882 433.942 40.7701 433.942C42.0027 433.899 43.2018 433.529 44.2443 432.869L342.931 260.203C348.345 257.074 352.775 248.613 352.775 241.282V16.692C352.775 11.969 350.835 8.89757 347.853 8.89757Z" fill="#33076B"/>
</g>
</g>
<g style="mix-blend-mode:screen" opacity="0.7">
<path d="M40.7412 431.681C41.5837 431.615 42.398 431.347 43.1152 430.899L341.831 258.291C346.55 255.567 350.517 247.773 350.517 241.282V16.692C350.517 13.7945 349.677 11.0997 347.824 11.0997C346.982 11.1662 346.167 11.4345 345.45 11.8821L46.7919 184.49C42.0729 187.214 38.1066 195.008 38.1066 201.499V426.147C38.0777 428.871 38.9173 431.681 40.7412 431.681Z" fill="#25054D"/>
</g>
<g style="mix-blend-mode:screen">
<g style="mix-blend-mode:screen">
<path d="M41.3781 224.592C41.0597 224.595 40.7492 224.493 40.4946 224.302C40.24 224.111 40.0556 223.841 39.9698 223.534C39.8841 223.227 39.9019 222.9 40.0204 222.604C40.1389 222.309 40.3515 222.06 40.6254 221.898L45.6628 219L46.0103 218.855L46.3287 218.623L51.3372 215.726C51.5184 215.64 51.7161 215.596 51.9163 215.596C52.1164 215.596 52.3141 215.64 52.4953 215.726C52.5377 215.534 52.6186 215.353 52.7331 215.194C52.8476 215.034 52.9932 214.9 53.1612 214.799L58.1118 211.727C58.2314 211.657 58.3574 211.599 58.4881 211.553L58.7776 211.321L63.8151 208.424C63.9928 208.345 64.1852 208.304 64.3797 208.304C64.5742 208.304 64.7665 208.345 64.9442 208.424C65.0474 208.029 65.2955 207.688 65.639 207.468L70.6475 204.57H71.0239C71.107 204.477 71.2048 204.399 71.3134 204.338L76.3219 201.441C76.4956 201.341 76.6875 201.276 76.8864 201.251C77.0852 201.227 77.287 201.242 77.48 201.296C77.5159 201.041 77.6175 200.8 77.775 200.597C77.9324 200.394 78.14 200.235 78.3775 200.137L83.386 197.239H83.7623C83.8454 197.147 83.9432 197.068 84.0518 197.007L89.0604 194.11C89.2314 194.003 89.4235 193.935 89.6235 193.91C89.8234 193.885 90.0264 193.904 90.2184 193.965C90.2608 193.77 90.3448 193.586 90.4647 193.426C90.5846 193.266 90.7376 193.133 90.9132 193.038L95.9218 190.14C96.0365 190.118 96.1545 190.118 96.2692 190.14L96.5876 189.908L101.596 187.011C101.779 186.933 101.976 186.893 102.175 186.893C102.374 186.893 102.571 186.933 102.754 187.011C102.797 186.815 102.881 186.631 103 186.471C103.12 186.311 103.273 186.179 103.449 186.084L108.458 183.186L108.805 183.012L109.123 182.78L114.132 179.883C114.315 179.805 114.512 179.764 114.711 179.764C114.91 179.764 115.107 179.805 115.29 179.883C115.332 179.684 115.416 179.495 115.535 179.331C115.655 179.166 115.808 179.028 115.985 178.927L120.993 176.029L121.341 175.884L121.659 175.652L126.668 172.755C126.851 172.677 127.048 172.636 127.247 172.636C127.446 172.636 127.643 172.677 127.826 172.755C127.868 172.563 127.949 172.382 128.064 172.223C128.178 172.063 128.324 171.929 128.492 171.828L133.384 168.264L133.732 168.119L134.05 167.887L139.059 164.989C139.24 164.904 139.438 164.86 139.638 164.86C139.838 164.86 140.036 164.904 140.217 164.989C140.259 164.798 140.34 164.617 140.455 164.457C140.569 164.298 140.715 164.163 140.883 164.062L145.891 161.165C146.006 161.092 146.134 161.042 146.268 161.02C146.35 160.918 146.447 160.83 146.557 160.759L151.595 157.861C151.773 157.784 151.965 157.744 152.159 157.744C152.353 157.744 152.545 157.784 152.724 157.861C152.771 157.668 152.857 157.486 152.976 157.327C153.096 157.167 153.246 157.034 153.418 156.934L158.427 154.037H158.803C158.886 153.944 158.984 153.866 159.093 153.805L164.101 150.907C164.456 150.717 164.869 150.665 165.259 150.762C165.302 150.567 165.386 150.383 165.506 150.223C165.626 150.063 165.779 149.931 165.954 149.835L170.963 146.938H171.339C171.422 146.845 171.52 146.766 171.629 146.706L176.637 143.808C176.808 143.701 177 143.633 177.2 143.608C177.4 143.583 177.603 143.602 177.795 143.663C177.838 143.468 177.922 143.284 178.041 143.124C178.161 142.964 178.314 142.832 178.49 142.736L183.498 139.838C183.613 139.816 183.731 139.816 183.846 139.838L184.164 139.607L189.173 136.709C189.356 136.631 189.553 136.591 189.752 136.591C189.951 136.591 190.148 136.631 190.331 136.709C190.373 136.514 190.457 136.33 190.577 136.17C190.697 136.01 190.85 135.877 191.026 135.782L196.034 132.884C196.198 132.765 196.385 132.682 196.583 132.639C196.781 132.597 196.986 132.597 197.184 132.638C197.382 132.68 197.57 132.763 197.734 132.882C197.898 133.001 198.035 133.153 198.137 133.328C198.239 133.503 198.303 133.698 198.325 133.899C198.347 134.101 198.326 134.305 198.264 134.498C198.203 134.691 198.101 134.869 197.966 135.02C197.831 135.171 197.666 135.293 197.482 135.376L192.473 138.274C192.29 138.35 192.093 138.39 191.894 138.39C191.696 138.39 191.499 138.35 191.315 138.274C191.273 138.469 191.189 138.653 191.069 138.813C190.949 138.973 190.796 139.106 190.62 139.201L185.612 142.099H185.264L184.946 142.33L179.938 145.228C179.756 145.311 179.558 145.354 179.358 145.354C179.159 145.354 178.961 145.311 178.779 145.228C178.737 145.423 178.653 145.607 178.533 145.767C178.413 145.927 178.26 146.06 178.085 146.155L173.076 149.053C172.961 149.075 172.843 149.075 172.729 149.053C172.636 149.155 172.529 149.243 172.41 149.314L167.402 152.211C167.219 152.289 167.022 152.329 166.823 152.329C166.624 152.329 166.427 152.289 166.244 152.211C166.201 152.407 166.117 152.591 165.997 152.751C165.877 152.911 165.724 153.043 165.549 153.138L160.54 156.036L160.193 156.181L159.874 156.413L154.866 159.31C154.493 159.453 154.081 159.453 153.708 159.31C153.665 159.502 153.585 159.683 153.47 159.842C153.356 160.002 153.21 160.136 153.042 160.237L148.034 163.135L147.657 163.28C147.574 163.373 147.476 163.451 147.368 163.512L142.33 166.409C142.152 166.487 141.96 166.526 141.766 166.526C141.571 166.526 141.379 166.487 141.201 166.409C141.154 166.603 141.068 166.784 140.948 166.944C140.829 167.103 140.679 167.237 140.506 167.336L135.498 170.234C135.383 170.307 135.255 170.356 135.121 170.379C135.038 170.472 134.94 170.55 134.832 170.611L129.823 173.508C129.64 173.586 129.443 173.627 129.244 173.627C129.045 173.627 128.848 173.586 128.665 173.508C128.618 173.702 128.532 173.884 128.413 174.043C128.293 174.202 128.143 174.336 127.971 174.435L122.962 177.333C122.845 177.408 122.718 177.467 122.586 177.507L122.296 177.739L117.288 180.636C117.105 180.714 116.908 180.755 116.709 180.755C116.51 180.755 116.313 180.714 116.13 180.636C116.087 180.836 116.004 181.024 115.884 181.188C115.764 181.353 115.611 181.491 115.435 181.592L110.426 184.49L110.079 184.635L109.76 184.867L104.752 187.764C104.379 187.907 103.967 187.907 103.594 187.764C103.551 187.96 103.467 188.144 103.347 188.304C103.228 188.464 103.075 188.596 102.899 188.691L97.8904 191.589H97.543L97.2246 191.821L92.216 194.718C92.0344 194.802 91.8369 194.845 91.637 194.845C91.4372 194.845 91.2397 194.802 91.058 194.718C91.0156 194.914 90.9316 195.098 90.8117 195.258C90.6918 195.418 90.5388 195.55 90.3632 195.646L85.3546 198.543C85.2399 198.566 85.1219 198.566 85.0072 198.543L84.6888 198.804L79.6803 201.702C79.4972 201.78 79.3002 201.82 79.1012 201.82C78.9022 201.82 78.7053 201.78 78.5222 201.702C78.4798 201.893 78.3989 202.074 78.2844 202.234C78.1699 202.393 78.0243 202.527 77.8563 202.629L72.8189 205.526L72.4715 205.671L72.153 205.903L67.1445 208.801C66.9614 208.879 66.7645 208.919 66.5655 208.919C66.3665 208.919 66.1695 208.879 65.9864 208.801C65.9494 208.998 65.8708 209.185 65.7561 209.35C65.6413 209.515 65.4928 209.654 65.3206 209.757L60.312 212.654L59.9357 212.799C59.8526 212.892 59.7548 212.97 59.6462 213.031L54.6087 215.929C54.4305 216.006 54.2384 216.046 54.0442 216.046C53.8499 216.046 53.6578 216.006 53.4796 215.929C53.4322 216.122 53.3462 216.304 53.2268 216.463C53.1074 216.623 52.9571 216.756 52.7848 216.856L47.7763 219.753L47.3999 219.898C47.3168 219.991 47.219 220.069 47.1104 220.13L42.1019 223.028C42.1369 223.33 42.0879 223.636 41.9602 223.912C41.8325 224.188 41.631 224.424 41.3781 224.592Z" fill="#25054D"/>
</g>
</g>
<g style="mix-blend-mode:screen">
<g style="mix-blend-mode:screen">
<path d="M42.1019 256.292L40.7412 253.771L44.1863 251.772L45.7207 250.873C46.0473 250.726 46.417 250.704 46.7583 250.814C47.0996 250.923 47.3882 251.155 47.5683 251.465C47.7484 251.775 47.8072 252.141 47.7333 252.492C47.6594 252.843 47.4581 253.154 47.1683 253.365L42.1019 256.292ZM52.3216 250.12C52.0057 250.117 51.6995 250.01 51.4497 249.817C51.2 249.623 51.0204 249.353 50.9384 249.047C50.8564 248.742 50.8765 248.418 50.9955 248.125C51.1146 247.832 51.3261 247.587 51.5978 247.425L56.6063 244.528L58.1118 243.6C58.2754 243.5 58.4574 243.432 58.6473 243.402C58.8372 243.373 59.0311 243.381 59.2177 243.427C59.4044 243.473 59.58 243.556 59.7343 243.67C59.8886 243.785 60.0186 243.929 60.1167 244.095C60.2147 244.26 60.2788 244.443 60.3053 244.634C60.3318 244.825 60.3201 245.018 60.2709 245.204C60.2217 245.39 60.136 245.565 60.0188 245.717C59.9016 245.87 59.7553 245.997 59.5883 246.092L54.5508 248.99L53.0164 249.888C52.8051 250.017 52.5676 250.096 52.3216 250.12ZM64.8573 242.876C64.6009 242.874 64.3494 242.806 64.1264 242.679C63.9035 242.553 63.7166 242.371 63.5835 242.152C63.4035 241.816 63.3603 241.423 63.4628 241.056C63.5653 240.689 63.8056 240.375 64.1336 240.181L65.639 239.312L70.6475 236.415C70.9861 236.225 71.3853 236.177 71.759 236.28C72.1328 236.383 72.4511 236.629 72.6452 236.965C72.8327 237.299 72.8801 237.695 72.777 238.064C72.6739 238.433 72.4287 238.747 72.0951 238.935L70.5896 239.805L65.5811 242.702C65.3607 242.826 65.1101 242.887 64.8573 242.876ZM77.3931 235.632C77.1362 235.633 76.8835 235.566 76.6601 235.439C76.4367 235.312 76.2503 235.129 76.1193 234.908C75.9317 234.573 75.8843 234.178 75.9874 233.809C76.0906 233.439 76.3358 233.126 76.6693 232.937L78.1748 232.068L83.1833 229.171C83.5183 228.979 83.915 228.926 84.2883 229.024C84.6617 229.121 84.9821 229.361 85.1809 229.692C85.3624 230.033 85.4066 230.43 85.3042 230.802C85.2019 231.174 84.9609 231.492 84.6309 231.691L83.1254 232.561L78.1169 235.458C77.8965 235.582 77.6458 235.643 77.3931 235.632ZM89.9578 228.388C89.7003 228.392 89.4465 228.327 89.2226 228.199C88.9987 228.072 88.8127 227.887 88.684 227.664C88.4926 227.329 88.44 226.932 88.5374 226.558C88.6348 226.184 88.8745 225.864 89.2051 225.665L94.2426 222.767L95.777 221.898C95.9408 221.778 96.1278 221.695 96.3259 221.653C96.5239 221.61 96.7287 221.61 96.9269 221.652C97.1251 221.694 97.3123 221.777 97.4764 221.895C97.6406 222.014 97.778 222.166 97.8798 222.341C97.9816 222.516 98.0455 222.711 98.0674 222.913C98.0893 223.114 98.0688 223.318 98.007 223.511C97.9452 223.704 97.8437 223.882 97.7089 224.033C97.5741 224.185 97.4091 224.306 97.2245 224.39L92.216 227.287L90.6816 228.185C90.4584 228.306 90.2112 228.375 89.9578 228.388ZM102.465 221.115C102.149 221.112 101.843 221.006 101.593 220.812C101.343 220.618 101.164 220.348 101.082 220.043C101 219.737 101.02 219.414 101.139 219.121C101.258 218.828 101.469 218.582 101.741 218.421L106.749 215.523L108.284 214.654C108.447 214.556 108.627 214.491 108.815 214.465C109.003 214.438 109.195 214.449 109.378 214.498C109.562 214.546 109.734 214.631 109.884 214.748C110.034 214.864 110.16 215.01 110.252 215.175C110.35 215.338 110.415 215.519 110.441 215.707C110.468 215.895 110.457 216.087 110.408 216.271C110.36 216.455 110.275 216.627 110.159 216.777C110.042 216.927 109.897 217.053 109.731 217.146L104.723 220.043L103.188 220.942C102.956 221.062 102.697 221.121 102.436 221.115H102.465ZM115 213.871C114.685 213.868 114.378 213.762 114.129 213.568C113.879 213.374 113.699 213.104 113.617 212.799C113.535 212.494 113.555 212.17 113.674 211.877C113.793 211.584 114.005 211.338 114.277 211.177L119.285 208.279L120.82 207.381C121.154 207.189 121.55 207.137 121.922 207.238C122.294 207.338 122.611 207.583 122.803 207.917C122.995 208.251 123.046 208.648 122.946 209.02C122.845 209.393 122.601 209.71 122.267 209.902L117.259 212.799L115.724 213.669C115.5 213.812 115.237 213.882 114.971 213.871H115ZM127.594 206.628C127.341 206.626 127.094 206.558 126.875 206.431C126.657 206.304 126.476 206.122 126.349 205.903C126.158 205.568 126.105 205.171 126.203 204.797C126.3 204.424 126.54 204.103 126.87 203.904L131.879 201.006L133.384 200.137C133.548 200.018 133.735 199.934 133.933 199.892C134.131 199.85 134.336 199.849 134.534 199.891C134.732 199.933 134.92 200.016 135.084 200.135C135.248 200.253 135.385 200.405 135.487 200.58C135.589 200.756 135.653 200.95 135.675 201.152C135.697 201.353 135.676 201.557 135.614 201.75C135.553 201.944 135.451 202.121 135.316 202.273C135.181 202.424 135.016 202.545 134.832 202.629L129.823 205.526L128.289 206.425C128.081 206.557 127.84 206.627 127.594 206.628ZM140.13 199.384C139.877 199.382 139.629 199.314 139.411 199.187C139.193 199.06 139.011 198.878 138.885 198.659C138.694 198.324 138.641 197.927 138.738 197.553C138.836 197.18 139.075 196.859 139.406 196.66L140.912 195.791L145.92 192.893C146.084 192.792 146.266 192.725 146.456 192.695C146.645 192.665 146.839 192.673 147.026 192.719C147.213 192.765 147.388 192.848 147.543 192.963C147.697 193.078 147.827 193.222 147.925 193.387C148.023 193.553 148.087 193.736 148.114 193.927C148.14 194.117 148.128 194.311 148.079 194.497C148.03 194.683 147.944 194.857 147.827 195.01C147.71 195.162 147.564 195.29 147.397 195.385L145.862 196.254L140.854 199.152C140.607 199.296 140.328 199.375 140.043 199.384H140.13ZM152.666 192.111C152.35 192.108 152.044 192.001 151.794 191.807C151.544 191.614 151.365 191.343 151.283 191.038C151.2 190.733 151.221 190.409 151.34 190.116C151.459 189.823 151.67 189.577 151.942 189.416L153.447 188.547L158.456 185.649C158.621 185.554 158.804 185.492 158.993 185.468C159.182 185.443 159.374 185.456 159.558 185.506C159.742 185.556 159.915 185.641 160.066 185.758C160.217 185.875 160.344 186.02 160.439 186.185C160.534 186.351 160.596 186.533 160.62 186.723C160.645 186.912 160.632 187.104 160.582 187.289C160.532 187.473 160.447 187.646 160.33 187.797C160.214 187.948 160.069 188.075 159.903 188.17L158.398 189.039L153.389 191.937C153.138 192.063 152.859 192.123 152.579 192.111H152.666ZM165.23 184.867C164.973 184.867 164.721 184.801 164.497 184.674C164.274 184.547 164.088 184.364 163.957 184.142C163.86 183.978 163.797 183.795 163.772 183.606C163.748 183.417 163.761 183.224 163.813 183.04C163.864 182.856 163.952 182.684 164.071 182.535C164.191 182.386 164.339 182.263 164.507 182.172L169.515 179.275L171.021 178.376C171.183 178.278 171.364 178.214 171.552 178.187C171.74 178.16 171.932 178.172 172.115 178.22C172.299 178.269 172.471 178.354 172.621 178.47C172.771 178.587 172.896 178.732 172.989 178.898C173.181 179.233 173.233 179.63 173.136 180.004C173.038 180.377 172.799 180.698 172.468 180.897L167.46 183.795L165.954 184.664C165.737 184.798 165.486 184.869 165.23 184.867ZM177.766 177.623C177.441 177.631 177.122 177.53 176.862 177.334C176.601 177.139 176.414 176.862 176.33 176.547C176.246 176.232 176.271 175.898 176.4 175.599C176.53 175.3 176.756 175.054 177.042 174.899L182.051 172.002L183.614 171.103C183.778 170.984 183.965 170.901 184.163 170.858C184.361 170.816 184.566 170.816 184.764 170.857C184.962 170.899 185.15 170.982 185.314 171.101C185.478 171.22 185.615 171.372 185.717 171.547C185.819 171.722 185.883 171.917 185.905 172.118C185.927 172.32 185.906 172.524 185.844 172.717C185.782 172.91 185.681 173.088 185.546 173.239C185.411 173.39 185.246 173.512 185.062 173.595L180.053 176.493L178.49 177.391C178.235 177.54 177.946 177.62 177.65 177.623H177.766Z" fill="#25054D"/>
</g>
</g>
<path d="M68.7657 449.067C69.6 449.004 70.4056 448.735 71.1108 448.284L369.827 275.676C374.546 272.953 378.512 265.158 378.512 258.668V167.945C378.514 166.536 378.069 165.163 377.242 164.023C376.415 162.883 375.248 162.034 373.909 161.599C354.367 155.109 346 119.15 326.4 128.625C299.389 141.664 310.912 172.378 287.317 182.694C263.722 193.009 252.373 129.234 213.521 152.762C179.272 173.537 193.487 241.92 165.23 255.625C136.974 269.331 138.595 214.625 108.776 231.518C85.6152 244.644 85.3546 282.891 70.2422 308.854C67.4622 313.702 66.0139 319.2 66.0443 324.79V443.59C66.0443 446.256 66.7971 449.067 68.7657 449.067Z" fill="url(#paint1_linear)"/>
<g style="mix-blend-mode:screen">
<g style="mix-blend-mode:screen">
<path d="M199.285 131.752L197.817 134.249L200.313 135.719L201.781 133.221L199.285 131.752Z" fill="#320F5E"/>
</g>
<g style="mix-blend-mode:screen">
<path d="M213.781 143.46C213.528 143.447 213.281 143.378 213.057 143.258L207.962 140.36C207.853 140.299 207.756 140.221 207.673 140.128C207.44 139.909 207.291 139.617 207.248 139.3C207.206 138.984 207.274 138.662 207.441 138.39C207.64 138.059 207.96 137.819 208.334 137.721C208.707 137.624 209.103 137.677 209.439 137.868L214.534 140.766L214.823 140.998C215.044 141.23 215.184 141.528 215.22 141.847C215.257 142.166 215.189 142.488 215.026 142.765C214.896 142.979 214.713 143.155 214.495 143.277C214.277 143.399 214.031 143.462 213.781 143.46Z" fill="#320F5E"/>
</g>
<g style="mix-blend-mode:screen">
<path d="M222.408 145.865L220.931 148.357L223.422 149.835L224.898 147.343L222.408 145.865Z" fill="#320F5E"/>
</g>
<g style="mix-blend-mode:screen">
<path d="M213.781 143.46C213.527 143.452 213.279 143.382 213.057 143.258L207.962 140.36C207.633 140.166 207.394 139.851 207.297 139.482C207.199 139.113 207.251 138.721 207.441 138.39C207.552 138.155 207.723 137.954 207.936 137.806C208.15 137.659 208.398 137.57 208.657 137.549C208.922 137.544 209.183 137.614 209.41 137.752L214.505 140.65C214.779 140.812 214.991 141.061 215.11 141.357C215.228 141.652 215.246 141.979 215.16 142.286C215.075 142.593 214.89 142.863 214.636 143.054C214.381 143.246 214.071 143.348 213.752 143.345L213.781 143.46Z" fill="#320F5E"/>
</g>
</g>
<g style="mix-blend-mode:color-dodge">
<path style="mix-blend-mode:color-dodge" d="M166.967 258.088C195.166 244.383 180.951 176 215.2 155.225C254.052 131.696 265.864 195.327 289.025 185.186C312.186 175.044 301.097 144.127 328.109 131.088C347.737 121.642 356.075 157.572 375.617 164.062C376.507 164.366 377.325 164.849 378.02 165.482C377.656 164.587 377.102 163.782 376.398 163.122C375.693 162.462 374.854 161.962 373.938 161.657C354.396 155.167 346.029 119.208 326.429 128.683C299.418 141.722 310.941 172.436 287.346 182.752C263.751 193.067 252.373 129.234 213.521 152.762C179.272 173.537 193.487 241.92 165.23 255.625C152.347 261.884 145.66 253.858 139.377 244.875C146.239 254.727 152.926 264.869 166.967 258.088Z" fill="url(#paint2_radial)"/>
<path style="mix-blend-mode:color-dodge" d="M67.7524 445.88V327.224C67.7176 321.628 69.1555 316.122 71.9214 311.259C87.0338 285.181 87.3812 247.049 110.455 233.923C124.931 225.752 131.937 234.27 138.567 243.716C131.387 233.401 124.352 222.651 108.776 231.518C85.6152 244.644 85.3546 282.891 70.2422 308.854C67.4622 313.702 66.0139 319.2 66.0443 324.79V443.59C66.0443 446.024 66.7102 448.487 68.1288 449.038C67.854 448.008 67.7273 446.945 67.7524 445.88Z" fill="url(#paint3_radial)"/>
</g>
<path d="M225.564 280.776L216.445 285.876V152.501L221.916 149.69L225.564 150.038V280.776Z" fill="url(#paint4_linear)"/>
<g style="mix-blend-mode:color-dodge">
<path style="mix-blend-mode:color-dodge" d="M217.342 263.623H224.001L224.175 221.086V153.283C224.175 152.4 223.824 151.552 223.199 150.927C222.575 150.302 221.728 149.951 220.845 149.951C220.407 149.947 219.972 150.031 219.567 150.197C219.161 150.363 218.792 150.608 218.482 150.918C218.172 151.229 217.927 151.597 217.761 152.004C217.595 152.41 217.512 152.845 217.516 153.283V221.086L217.342 263.623Z" fill="url(#paint5_linear)"/>
<path style="mix-blend-mode:color-dodge" d="M219.427 258.088L219.166 219.841V218.537L218.934 156.384C218.934 155.833 219.166 154.124 219.571 153.834C219.731 153.569 219.956 153.35 220.225 153.198C220.493 153.045 220.797 152.965 221.106 152.965C221.423 152.96 221.736 153.041 222.011 153.199C222.286 153.357 222.513 153.586 222.669 153.863C223.07 154.59 223.279 155.408 223.277 156.239L223.132 218.479V220.043L222.901 255.539L219.427 258.088Z" fill="url(#paint6_linear)"/>
<path style="mix-blend-mode:color-dodge" d="M221.482 252.293L220.787 217.175L220.237 156.905C220.237 156.621 220.35 156.348 220.551 156.147C220.752 155.946 221.024 155.833 221.308 155.833C221.59 155.84 221.858 155.956 222.058 156.155C222.257 156.355 222.372 156.623 222.38 156.905L222.003 217.262L221.482 252.293Z" fill="url(#paint7_linear)"/>
</g>
<path d="M221.366 160.904L212.189 155.659L221.366 139.781L230.573 145.025L221.366 160.904Z" fill="url(#paint8_linear)"/>
<path style="mix-blend-mode:color-dodge" d="M222.206 141.722L229.936 146.126L230.573 145.025L221.366 139.781L212.189 155.659L213.665 156.5L222.206 141.722Z" fill="url(#paint9_radial)"/>
<g style="mix-blend-mode:screen">
<g style="mix-blend-mode:screen">
<path d="M14.6853 228.881C14.7682 231.381 14.252 233.865 13.1798 236.125C12.1428 238.127 10.5292 239.773 8.54768 240.848C8.03384 241.186 7.47941 241.459 6.89747 241.659V239.689C7.44117 239.564 7.95994 239.349 8.43188 239.051C9.72881 238.358 10.7953 237.3 11.5007 236.009C12.2236 234.581 12.6004 233.003 12.6008 231.402C12.2927 232.129 11.8727 232.804 11.3559 233.401C10.877 233.947 10.3093 234.407 9.67677 234.763C8.54768 235.429 7.67915 235.516 7.04223 235.082C6.40531 234.647 5.99999 233.807 5.99999 232.416C5.99572 230.925 6.37457 229.458 7.10013 228.156C7.77851 226.896 8.77713 225.836 9.99523 225.085C10.6818 224.614 11.5116 224.399 12.3403 224.476C12.6842 224.549 13.0046 224.706 13.2725 224.934C13.5404 225.162 13.7474 225.452 13.8747 225.78C14.3844 226.736 14.6621 227.798 14.6853 228.881ZM10.2847 226.997C9.59241 227.401 9.02985 227.994 8.66348 228.707C8.28185 229.502 8.09337 230.375 8.11342 231.257C8.07337 231.549 8.09941 231.847 8.1896 232.127C8.2798 232.408 8.43185 232.665 8.63453 232.879C8.98194 233.169 9.50306 233.082 10.1979 232.677C10.9104 232.274 11.5084 231.695 11.9349 230.996C12.3545 230.389 12.5952 229.676 12.6298 228.939C12.6493 228.43 12.5502 227.924 12.3403 227.461C12.2677 227.282 12.1537 227.123 12.0077 226.997C11.8618 226.872 11.688 226.782 11.5007 226.737C11.2728 226.685 11.0366 226.681 10.8073 226.726C10.578 226.771 10.3606 226.864 10.1689 226.997H10.2847Z" fill="#7100FF"/>
</g>
<g style="mix-blend-mode:screen">
<path d="M25.1076 223.868C25.1821 225.987 24.8173 228.098 24.0365 230.069C23.4034 231.626 22.2735 232.93 20.8229 233.778C19.4043 234.589 18.3621 234.56 17.6383 233.778C16.744 232.3 16.3576 230.57 16.5382 228.852C16.4575 226.698 16.8119 224.549 17.5804 222.535C18.2355 220.99 19.3731 219.699 20.8229 218.855C22.2125 218.044 23.2837 218.073 24.0075 218.855C24.9166 220.359 25.3033 222.121 25.1076 223.868ZM18.5937 227.606C18.4896 228.941 18.6672 230.284 19.1148 231.547C19.4622 232.184 20.0412 232.271 20.8229 231.836C21.6494 231.311 22.2486 230.494 22.5021 229.547C22.9302 228.081 23.116 226.554 23.0521 225.027C23.1667 223.708 22.9785 222.38 22.5021 221.144C22.1546 220.478 21.6046 220.362 20.8229 220.826C19.9834 221.33 19.3713 222.14 19.1148 223.086C18.713 224.557 18.5373 226.081 18.5937 227.606Z" fill="#7100FF"/>
</g>
<g style="mix-blend-mode:screen">
<path d="M10.2847 261.189C10.6969 260.887 11.1661 260.672 11.6638 260.557C12.1615 260.443 12.6773 260.431 13.1798 260.522C13.8747 260.754 14.2221 261.391 14.2221 262.435C14.0367 264.309 13.1716 266.051 11.7902 267.331C12.5433 267.24 13.3022 267.448 13.9036 267.911C14.1564 268.129 14.3576 268.401 14.4928 268.707C14.6279 269.012 14.6937 269.344 14.6853 269.678C14.6641 270.942 14.2714 272.172 13.5562 273.213C12.7621 274.407 11.7016 275.399 10.4585 276.111C10.0086 276.452 9.4951 276.7 8.94815 276.839C8.4012 276.978 7.8319 277.007 7.27384 276.922C6.40531 276.633 6 275.908 6 274.662C6.00752 273.79 6.20512 272.93 6.57902 272.141C7.08146 271.086 7.7349 270.11 8.51874 269.244C8.20747 269.234 7.90124 269.163 7.61791 269.033C7.33458 268.904 7.07983 268.719 6.86853 268.49C6.51729 267.993 6.3532 267.388 6.40531 266.781C6.4755 265.732 6.84752 264.725 7.4765 263.883C8.19695 262.784 9.15711 261.863 10.2847 261.189ZM7.96867 273.474C7.96867 274.141 8.17132 274.575 8.57664 274.691C8.87392 274.745 9.179 274.736 9.47287 274.666C9.76673 274.596 10.0431 274.467 10.2847 274.286C10.9848 273.904 11.5812 273.357 12.0218 272.692C12.4086 272.118 12.6199 271.443 12.6298 270.751C12.6362 270.54 12.5891 270.331 12.4929 270.144C12.3967 269.956 12.2545 269.796 12.0797 269.678C11.5325 269.445 10.932 269.364 10.3426 269.447H10.0821C9.44368 270.103 8.89819 270.844 8.46083 271.649C8.15227 272.209 7.98343 272.835 7.96867 273.474ZM10.2847 263.014C9.72521 263.32 9.24833 263.758 8.8951 264.289C8.55721 264.773 8.37538 265.35 8.37398 265.941C8.35403 266.231 8.41411 266.522 8.54769 266.781C8.68338 266.971 8.87603 267.113 9.09775 267.187C9.5097 267.257 9.9307 267.257 10.3426 267.187C10.8969 266.596 11.3825 265.945 11.7902 265.245C12.064 264.758 12.2132 264.21 12.2245 263.652C12.2245 263.101 12.0508 262.753 11.6744 262.608C11.4273 262.574 11.1757 262.592 10.9361 262.662C10.6966 262.732 10.4746 262.852 10.2847 263.014Z" fill="#7100FF"/>
</g>
<g style="mix-blend-mode:screen">
<path d="M25.1076 260.088C25.1821 262.206 24.8173 264.318 24.0365 266.288C23.4034 267.846 22.2735 269.15 20.8229 269.997C19.4043 270.809 18.3621 270.78 17.6383 269.997C16.744 268.52 16.3576 266.789 16.5382 265.071C16.4575 262.917 16.8119 260.769 17.5804 258.755C18.2561 257.253 19.3917 256.004 20.8229 255.191C22.2125 254.379 23.2837 254.408 24.0075 255.191C24.8917 256.662 25.2776 258.379 25.1076 260.088ZM18.5937 263.883C18.4896 265.219 18.6672 266.562 19.1148 267.824C19.4622 268.461 20.0412 268.548 20.8229 268.114C21.6494 267.588 22.2486 266.771 22.5021 265.825C22.9302 264.358 23.116 262.831 23.0521 261.305C23.1667 259.985 22.9785 258.657 22.5021 257.422C22.1546 256.755 21.6046 256.639 20.8229 257.103C19.9834 257.608 19.3713 258.417 19.1148 259.363C18.713 260.835 18.5373 262.359 18.5937 263.883Z" fill="#7100FF"/>
</g>
</g>
<path d="M97.2245 464.801C98.0697 464.747 98.8871 464.478 99.5985 464.018L398.286 291.439C400.936 289.451 403.097 286.881 404.602 283.928C406.107 280.975 406.918 277.716 406.971 274.402V225.143C406.992 223.67 406.519 222.232 405.626 221.061C404.734 219.889 403.474 219.051 402.049 218.681C382.739 213.987 374.372 192.603 354.859 201.962C327.848 215.002 339.371 229.315 315.776 239.631C292.18 249.946 280.832 186.026 241.979 209.583C207.73 230.33 221.945 282.312 193.747 296.017C165.549 309.723 167.054 271.388 137.235 288.339C114.074 301.436 113.813 339.713 98.701 365.675C95.926 370.524 94.4873 376.024 94.5321 381.612V459.208C94.5321 461.99 95.3717 464.801 97.2245 464.801Z" fill="url(#paint10_linear)"/>
<path style="mix-blend-mode:color-dodge" d="M96.2113 461.613V384.016C96.1808 378.427 97.6291 372.928 100.409 368.08C115.522 342.002 115.84 303.87 138.943 290.744C168.733 273.793 167.228 312.128 195.426 298.422C223.625 284.717 209.41 232.763 243.688 211.988C282.54 188.547 294.352 252.061 317.513 241.92C341.108 231.604 329.556 217.319 356.596 204.251C376.08 194.834 384.447 216.276 403.758 220.941C404.767 221.199 405.701 221.696 406.479 222.39C406.1 221.447 405.504 220.606 404.74 219.936C403.975 219.266 403.063 218.787 402.078 218.536C382.768 213.842 374.401 192.458 354.888 201.817C327.877 214.856 339.4 229.17 315.804 239.486C292.209 249.801 280.832 186.026 241.979 209.583C207.73 230.329 221.945 282.312 193.747 296.017C165.549 309.723 167.054 271.388 137.235 288.339C114.074 301.436 113.813 339.713 98.701 365.675C95.926 370.524 94.4873 376.023 94.5321 381.611V459.208C94.5321 461.642 95.169 464.105 96.5876 464.685C96.3256 463.682 96.199 462.649 96.2113 461.613Z" fill="url(#paint11_radial)"/>
<g style="mix-blend-mode:screen">
<g style="mix-blend-mode:screen">
<path d="M190.209 170.328L188.74 172.825L191.234 174.295L192.703 171.799L190.209 170.328Z" fill="#320F5E"/>
</g>
<g style="mix-blend-mode:screen">
<path d="M242.53 204.309C242.297 204.307 242.068 204.247 241.864 204.136L236.797 201.238C236.467 201.039 236.227 200.718 236.13 200.345C236.032 199.971 236.085 199.574 236.276 199.239C236.41 199.029 236.594 198.855 236.811 198.734C237.028 198.613 237.272 198.547 237.521 198.543C237.788 198.514 238.057 198.586 238.274 198.746L243.311 201.644C243.477 201.737 243.622 201.862 243.738 202.012C243.855 202.163 243.94 202.335 243.988 202.518C244.037 202.702 244.048 202.894 244.021 203.082C243.995 203.27 243.93 203.451 243.832 203.614C243.749 203.774 243.63 203.913 243.485 204.02L243.109 204.222C242.925 204.295 242.727 204.325 242.53 204.309ZM229.907 196.863C229.644 196.854 229.386 196.785 229.154 196.66L224.146 193.762C223.925 193.631 223.742 193.445 223.615 193.221C223.488 192.997 223.421 192.745 223.422 192.487C223.42 192.232 223.49 191.981 223.625 191.763C223.72 191.6 223.847 191.457 223.998 191.343C224.149 191.23 224.322 191.148 224.505 191.102C224.689 191.056 224.879 191.047 225.066 191.076C225.253 191.105 225.432 191.171 225.593 191.27L230.66 194.168C230.788 194.248 230.905 194.346 231.007 194.458C231.148 194.684 231.223 194.945 231.223 195.211C231.223 195.478 231.148 195.739 231.007 195.964H230.775C230.702 196.167 230.586 196.351 230.437 196.506C230.287 196.661 230.106 196.782 229.907 196.863ZM217.342 189.387C217.087 189.389 216.836 189.318 216.618 189.184L211.552 186.229C211.336 186.094 211.159 185.906 211.037 185.682C210.916 185.459 210.854 185.208 210.857 184.954C210.855 184.698 210.926 184.447 211.06 184.229C211.253 183.9 211.568 183.661 211.937 183.563C212.306 183.466 212.698 183.518 213.028 183.708L218.095 186.605C218.306 186.737 218.481 186.921 218.603 187.139C218.724 187.357 218.788 187.602 218.79 187.851C218.795 188.117 218.725 188.378 218.587 188.605C218.466 188.832 218.287 189.025 218.069 189.162C217.85 189.299 217.6 189.377 217.342 189.387ZM204.72 181.94C204.454 181.946 204.193 181.875 203.967 181.737L198.929 178.84L200.406 176.348L205.443 179.245C205.552 179.306 205.65 179.385 205.733 179.477C205.963 179.704 206.11 180.001 206.152 180.321C206.194 180.641 206.128 180.966 205.964 181.245C205.825 181.469 205.628 181.652 205.394 181.775C205.159 181.897 204.897 181.954 204.633 181.94H204.72Z" fill="#320F5E"/>
</g>
<g style="mix-blend-mode:screen">
<path d="M250.843 206.045L249.373 208.541L251.867 210.012L253.337 207.516L250.843 206.045Z" fill="#320F5E"/>
</g>
<g style="mix-blend-mode:screen">
<path d="M242.529 204.31C242.274 204.315 242.022 204.244 241.806 204.107L236.739 201.209C236.521 201.083 236.339 200.901 236.212 200.683C236.085 200.464 236.017 200.216 236.016 199.963C236.024 199.7 236.094 199.442 236.218 199.21C236.422 198.884 236.744 198.65 237.117 198.558C237.49 198.466 237.884 198.523 238.216 198.717L243.253 201.615C243.472 201.741 243.654 201.923 243.781 202.141C243.908 202.36 243.976 202.608 243.977 202.861C243.979 203.117 243.909 203.368 243.774 203.585C243.648 203.804 243.467 203.986 243.248 204.113C243.03 204.24 242.782 204.308 242.529 204.31ZM229.907 196.863C229.644 196.854 229.386 196.785 229.154 196.66L224.117 193.762C223.84 193.594 223.627 193.34 223.509 193.038C223.365 192.675 223.365 192.271 223.509 191.908C223.569 191.799 223.648 191.701 223.74 191.618L224.117 191.386C224.442 191.256 224.805 191.256 225.13 191.386H225.333L230.399 194.284C230.686 194.439 230.912 194.685 231.041 194.984C231.17 195.283 231.195 195.617 231.111 195.932C231.028 196.247 230.84 196.524 230.58 196.719C230.319 196.914 230.001 197.016 229.675 197.008L229.907 196.863ZM217.342 189.387C217.084 189.412 216.826 189.34 216.618 189.184L211.552 186.287H211.378C211.12 186.067 210.949 185.762 210.896 185.428C210.843 185.093 210.911 184.75 211.089 184.461C211.171 184.309 211.279 184.172 211.407 184.056C211.537 183.959 211.684 183.89 211.841 183.853C212.204 183.709 212.608 183.709 212.971 183.853L218.037 186.75C218.311 186.913 218.523 187.161 218.642 187.457C218.76 187.753 218.778 188.08 218.693 188.386C218.607 188.693 218.422 188.963 218.168 189.155C217.913 189.346 217.603 189.448 217.284 189.445L217.342 189.387ZM204.72 181.94C204.454 181.946 204.193 181.876 203.967 181.738L198.929 178.84C198.658 178.679 198.446 178.433 198.327 178.14C198.208 177.847 198.188 177.523 198.27 177.218C198.352 176.912 198.532 176.642 198.781 176.449C199.031 176.255 199.337 176.148 199.653 176.145C199.918 176.14 200.179 176.21 200.406 176.348L205.443 179.246C205.715 179.407 205.927 179.653 206.046 179.946C206.165 180.239 206.185 180.562 206.103 180.868C206.021 181.173 205.841 181.443 205.591 181.637C205.342 181.831 205.035 181.937 204.72 181.94Z" fill="#320F5E"/>
</g>
</g>
<path d="M256.426 339.858L247.335 344.928V211.553L252.807 208.772L256.426 209.09V339.858Z" fill="url(#paint12_linear)"/>
<g style="mix-blend-mode:color-dodge">
<path style="mix-blend-mode:color-dodge" d="M248.233 322.675H254.978V280.11L255.152 212.307C255.152 211.867 255.065 211.431 254.896 211.025C254.727 210.618 254.479 210.25 254.167 209.94C253.855 209.63 253.484 209.385 253.077 209.22C252.67 209.054 252.233 208.971 251.794 208.974C250.916 208.982 250.076 209.336 249.458 209.961C248.84 210.585 248.493 211.428 248.493 212.307L248.32 280.139L248.233 322.675Z" fill="url(#paint13_linear)"/>
<path style="mix-blend-mode:color-dodge" d="M250.288 317.054L250.028 278.835V277.502L249.767 215.378C249.768 214.476 249.997 213.589 250.433 212.799C250.583 212.533 250.802 212.312 251.067 212.159C251.332 212.006 251.633 211.927 251.939 211.93C252.259 211.926 252.576 212.007 252.855 212.165C253.135 212.323 253.368 212.551 253.531 212.828C253.935 213.565 254.145 214.393 254.139 215.233L253.907 277.56V279.125L253.676 314.591L250.288 317.054Z" fill="url(#paint14_linear)"/>
<path style="mix-blend-mode:color-dodge" d="M252.373 311.432L251.678 276.343L250.983 215.957C250.983 215.815 251.012 215.675 251.068 215.544C251.124 215.414 251.206 215.296 251.309 215.199C251.412 215.101 251.533 215.025 251.667 214.976C251.8 214.928 251.942 214.906 252.083 214.914C252.223 214.91 252.361 214.935 252.491 214.985C252.621 215.036 252.739 215.112 252.839 215.209C252.939 215.307 253.018 215.423 253.073 215.551C253.127 215.68 253.155 215.818 253.155 215.957L252.749 276.343L252.373 311.432Z" fill="url(#paint15_linear)"/>
</g>
<path d="M252.489 217.406L243.311 212.162L252.489 196.283L261.695 201.528L252.489 217.406Z" fill="url(#paint16_linear)"/>
<path style="mix-blend-mode:color-dodge" d="M253.328 198.225L261.058 202.629L261.695 201.528L252.489 196.283L243.311 212.162L244.788 213.002L253.328 198.225Z" fill="url(#paint17_radial)"/>
</g>
<defs>
<filter id="filter0_d" x="0" y="0" width="421" height="489" filterUnits="userSpaceOnUse" color-interpolation-filters="sRGB">
<feFlood flood-opacity="0" result="BackgroundImageFix"/>
<feColorMatrix in="SourceAlpha" type="matrix" values="0 0 0 0 0 0 0 0 0 0 0 0 0 0 0 0 0 0 127 0"/>
<feOffset dx="4" dy="4"/>
<feGaussianBlur stdDeviation="5"/>
<feColorMatrix type="matrix" values="0 0 0 0 0 0 0 0 0 0 0 0 0 0 0 0 0 0 0.25 0"/>
<feBlend mode="normal" in2="BackgroundImageFix" result="effect1_dropShadow"/>
<feBlend mode="normal" in="SourceGraphic" in2="effect1_dropShadow" result="shape"/>
</filter>
<radialGradient id="paint0_radial" cx="0" cy="0" r="1" gradientUnits="userSpaceOnUse" gradientTransform="translate(125.539 166.438) scale(188.066 188.226)">
<stop stop-color="white"/>
<stop offset="1"/>
</radialGradient>
<linearGradient id="paint1_linear" x1="277.966" y1="433.826" x2="113.259" y2="56.8683" gradientUnits="userSpaceOnUse">
<stop stop-color="#5513AB"/>
<stop offset="1" stop-color="#C211A1"/>
</linearGradient>
<radialGradient id="paint2_radial" cx="0" cy="0" r="1" gradientUnits="userSpaceOnUse" gradientTransform="translate(20970.5 8752.38) scale(7963.51 4444.49)">
<stop stop-color="white"/>
<stop offset="1"/>
</radialGradient>
<radialGradient id="paint3_radial" cx="0" cy="0" r="1" gradientUnits="userSpaceOnUse" gradientTransform="translate(2478.87 25572.8) scale(2056.02 6259.97)">
<stop stop-color="white"/>
<stop offset="1"/>
</radialGradient>
<linearGradient id="paint4_linear" x1="248.204" y1="269.36" x2="181.586" y2="143.71" gradientUnits="userSpaceOnUse">
<stop stop-color="#5513AB"/>
<stop offset="1" stop-color="#BE3BFF"/>
</linearGradient>
<linearGradient id="paint5_linear" x1="226.53" y1="31.9011" x2="221.04" y2="250.919" gradientUnits="userSpaceOnUse">
<stop stop-color="#271273"/>
<stop offset="0.14" stop-color="#1F0E5C"/>
<stop offset="0.4" stop-color="#120834"/>
<stop offset="0.64" stop-color="#080418"/>
<stop offset="0.85" stop-color="#020106"/>
<stop offset="1"/>
</linearGradient>
<linearGradient id="paint6_linear" x1="223.635" y1="98.4108" x2="221.474" y2="251.507" gradientUnits="userSpaceOnUse">
<stop stop-color="#82288F"/>
<stop offset="0.31" stop-color="#511959"/>
<stop offset="0.62" stop-color="#250C29"/>
<stop offset="0.86" stop-color="#0A030B"/>
<stop offset="1"/>
</linearGradient>
<linearGradient id="paint7_linear" x1="222.429" y1="156.034" x2="222.14" y2="251.292" gradientUnits="userSpaceOnUse">
<stop stop-color="#DC3DAA"/>
<stop offset="0.25" stop-color="#A32D7E"/>
<stop offset="0.77" stop-color="#2F0D24"/>
<stop offset="1"/>
</linearGradient>
<linearGradient id="paint8_linear" x1="198.9" y1="167.365" x2="223.756" y2="148.552" gradientUnits="userSpaceOnUse">
<stop offset="0.12" stop-color="#CB3BBB"/>
<stop offset="0.43" stop-color="#F058C9"/>
<stop offset="0.54" stop-color="#FF63CE"/>
<stop offset="1" stop-color="#FF91E1"/>
</linearGradient>
<radialGradient id="paint9_radial" cx="0" cy="0" r="1" gradientUnits="userSpaceOnUse" gradientTransform="translate(1579.76 960.012) scale(55.7031 50.6584)">
<stop stop-color="white"/>
<stop offset="1"/>
</radialGradient>
<linearGradient id="paint10_linear" x1="30501.3" y1="38762.3" x2="21496" y2="14457.8" gradientUnits="userSpaceOnUse">
<stop stop-color="#5513AB"/>
<stop offset="1" stop-color="#BE3BFF"/>
</linearGradient>
<radialGradient id="paint11_radial" cx="0" cy="0" r="1" gradientUnits="userSpaceOnUse" gradientTransform="translate(26438.5 30046.3) scale(15591.2 13255.2)">
<stop stop-color="white"/>
<stop offset="1"/>
</radialGradient>
<linearGradient id="paint12_linear" x1="1104.85" y1="15358.9" x2="166.761" y2="15240.7" gradientUnits="userSpaceOnUse">
<stop stop-color="#5513AB"/>
<stop offset="1" stop-color="#BE3BFF"/>
</linearGradient>
<linearGradient id="paint13_linear" x1="29365.2" y1="892386" x2="28767.8" y2="892406" gradientUnits="userSpaceOnUse">
<stop stop-color="#271273"/>
<stop offset="0.14" stop-color="#1F0E5C"/>
<stop offset="0.4" stop-color="#120834"/>
<stop offset="0.64" stop-color="#080418"/>
<stop offset="0.85" stop-color="#020106"/>
<stop offset="1"/>
</linearGradient>
<linearGradient id="paint14_linear" x1="18557.6" y1="826220" x2="18292" y2="826227" gradientUnits="userSpaceOnUse">
<stop stop-color="#82288F"/>
<stop offset="0.31" stop-color="#511959"/>
<stop offset="0.62" stop-color="#250C29"/>
<stop offset="0.86" stop-color="#0A030B"/>
<stop offset="1"/>
</linearGradient>
<linearGradient id="paint15_linear" x1="9306.37" y1="759552" x2="9223.75" y2="759553" gradientUnits="userSpaceOnUse">
<stop stop-color="#DC3DAA"/>
<stop offset="0.25" stop-color="#A32D7E"/>
<stop offset="0.77" stop-color="#2F0D24"/>
<stop offset="1"/>
</linearGradient>
<linearGradient id="paint16_linear" x1="1665.85" y1="1784.54" x2="1838.89" y2="1670.45" gradientUnits="userSpaceOnUse">
<stop offset="0.12" stop-color="#CB3BBB"/>
<stop offset="0.43" stop-color="#F058C9"/>
<stop offset="0.54" stop-color="#FF63CE"/>
<stop offset="1" stop-color="#FF91E1"/>
</linearGradient>
<radialGradient id="paint17_radial" cx="0" cy="0" r="1" gradientUnits="userSpaceOnUse" gradientTransform="translate(1808.51 1342.53) scale(55.7031 50.6584)">
<stop stop-color="white"/>
<stop offset="1"/>
</radialGradient>
<clipPath id="clip0">
<rect width="401" height="469" fill="white" transform="translate(6 6)"/>
</clipPath>
</defs>
</svg>
