<?xml version="1.0" encoding="utf-8"?>
<!-- Generator: Adobe Illustrator 24.3.0, SVG Export Plug-In . SVG Version: 6.00 Build 0)  -->
<svg version="1.1" id="Слой_1" xmlns="http://www.w3.org/2000/svg" xmlns:xlink="http://www.w3.org/1999/xlink" x="0px" y="0px"
	 viewBox="0 0 419 262" style="enable-background:new 0 0 419 262;" xml:space="preserve">
<style type="text/css">
	.st0{fill:#3FD8FF;}
	.st1{fill:#A8AEF0;}
	.st2{fill:#FFE7A5;}
</style>
<path class="st0" d="M253,24.7C254.1,19,241.1,6,230.6,6c-10.5,0-18,12.8-18,21.4c0,8.6,9.3,8.4,19.8,2.1
	C243,23.1,251.9,30.4,253,24.7L253,24.7z"/>
<path class="st1" d="M390.2,18c8.2,1.4,3.3,6.8,12.6,11.8c9.3,5,2.6,14.6-9.3,14.6c-11.9,0-16.7-8.5-16.7-14.6S382.1,16.6,390.2,18z
	"/>
<path class="st2" d="M95.3,44.2c6.4,6.6,14.2-2.3,14.2-10.2c0-7.9-6.9-13.3-14.2-14.2c-7.3-1-12.7,3-12.7,10.8S89,37.6,95.3,44.2z"
	/>
</svg>
