<?xml version="1.0" encoding="utf-8"?>
<!-- Generator: Adobe Illustrator 24.3.0, SVG Export Plug-In . SVG Version: 6.00 Build 0)  -->
<svg version="1.1" id="Слой_1" xmlns="http://www.w3.org/2000/svg" xmlns:xlink="http://www.w3.org/1999/xlink" x="0px" y="0px"
	 viewBox="0 0 451 265" style="enable-background:new 0 0 451 265;" xml:space="preserve">
<style type="text/css">
	.st0{fill:#3FD8FF;}
	.st1{fill:#FFE7A5;}
	.st2{fill:#A8AEF0;}
</style>
<path class="st0" d="M228.3,45.9c0.9-4.8-10-15.7-18.8-15.7c-8.8,0-15.2,10.7-15.1,17.9s7.8,7.1,16.7,1.7
	C219.9,44.6,227.4,50.7,228.3,45.9z"/>
<path class="st1" d="M328,28.4c2.5-6.9,6.4-1.8,12.2-9.1s13.1,0,11.3,10.3c-1.8,10.3-10,13.3-15.3,12.3S325.5,35.3,328,28.4z"/>
<path class="st2" d="M45.8,42.9c11.9-3,6.8-18-2.3-23.2c-9.1-5.2-19.9-0.9-25.9,6.9c-6,7.8-5,16.6,4.1,21.9
	C30.8,53.7,34,45.8,45.8,42.9L45.8,42.9z"/>
</svg>
